<svg width="20" height="18" viewBox="0 0 20 18" fill="none" xmlns="http://www.w3.org/2000/svg">
<path d="M3.375 0C2.47989 0 1.62145 0.355579 0.988515 0.988515C0.355579 1.62145 0 2.47989 0 3.375V11.625C0 12.5201 0.355579 13.3785 0.988515 14.0115C1.62145 14.6444 2.47989 15 3.375 15H13.125C14.0201 15 14.8785 14.6444 15.5115 14.0115C16.1444 13.3785 16.5 12.5201 16.5 11.625V3.375C16.5 2.47989 16.1444 1.62145 15.5115 0.988515C14.8785 0.355579 14.0201 0 13.125 0H3.375ZM6 10.494V4.506C5.99989 4.3701 6.03671 4.23672 6.10652 4.12012C6.17633 4.00352 6.27651 3.90808 6.39635 3.844C6.5162 3.77992 6.6512 3.7496 6.78694 3.7563C6.92267 3.76299 7.05404 3.80644 7.167 3.882L11.6625 6.876C11.7655 6.94443 11.85 7.03729 11.9085 7.14629C11.967 7.25529 11.9975 7.37706 11.9975 7.50075C11.9975 7.62444 11.967 7.74621 11.9085 7.85521C11.85 7.96421 11.7655 8.05707 11.6625 8.1255L7.1655 11.1195C7.05245 11.1947 6.9211 11.2379 6.78546 11.2443C6.64982 11.2507 6.51499 11.2202 6.39534 11.156C6.27569 11.0917 6.17572 10.9963 6.10609 10.8797C6.03647 10.7631 5.9998 10.6298 6 10.494V10.494ZM6 18C5.41775 18.0005 4.84341 17.8651 4.32263 17.6047C3.80185 17.3443 3.34898 16.9661 3 16.5H13.875C14.969 16.5 16.0182 16.0654 16.7918 15.2918C17.5654 14.5182 18 13.469 18 12.375V3C18.9105 3.684 19.5 4.773 19.5 6V12.375C19.5 13.8668 18.9074 15.2976 17.8525 16.3525C16.7976 17.4074 15.3668 18 13.875 18H6Z" fill="#FF9A24"/>
</svg>
